<svg xmlns="http://www.w3.org/2000/svg" xmlns:svg="http://www.w3.org/2000/svg" id="Layer_1" x="0" y="0" version="1.1" viewBox="0 0 32 32" xml:space="preserve" style="enable-background:new 0 0 32 32"><metadata id="metadata4550"/><polygon id="polygon4537" points="10.6 8.7 10.7 2.7 13.1 5.1 12.9 13.3 4.7 13.6 2.3 11.1 8.3 11 .4 3.1 2.7 .8" style="fill:#539cf6;fill-opacity:1"/><polygon id="polygon4539" points="8.3 21.2 2.3 21.1 4.7 18.7 12.9 18.9 13.2 27.1 10.7 29.5 10.6 23.5 2.7 31.4 .4 29.1" style="fill:#539cf6;fill-opacity:1"/><polygon id="polygon4541" points="21.6 23.4 21.4 29.5 19 27.1 19.3 18.9 27.5 18.5 29.9 21 23.8 21.1 31.8 29.1 29.5 31.3" style="fill:#539cf6;fill-opacity:1"/><polygon id="polygon4543" points="23.8 10.9 29.9 11.1 27.5 13.5 19.3 13.2 19 5.1 21.4 2.6 21.6 8.7 29.5 .7 31.8 3" style="fill:#539cf6;fill-opacity:1"/></svg>