<svg xmlns="http://www.w3.org/2000/svg" xmlns:xlink="http://www.w3.org/1999/xlink" id="Layer_1" x="0" y="0" version="1.1" viewBox="0 0 50 50" xml:space="preserve" style="enable-background:new 0 0 50 50"><style type="text/css">.st0{fill:#1e1e1e}.st1{opacity:.25;fill:#0072c6;enable-background:new}.st2{fill:#a0a1a2}.st3{fill:#fff}.st4{fill:#59b4d9}.st5{fill:#e5e5e5}.st6{opacity:.2}</style><path d="M0,44.3c0,1.1,0.9,2,2,2h46c1.1,0,2-0.9,2-2V13H0V44.3z" class="st0"/><path d="M0,44.3c0,1.1,0.9,2,2,2h46c1.1,0,2-0.9,2-2V13H0V44.3z" class="st1"/><path d="M48,3.7H2c-1.1,0-2,0.9-2,2v10.6h50V5.7C50,4.6,49.1,3.7,48,3.7" class="st2"/><rect width="33.7" height="3.9" x="12.9" y="8.5" class="st3"/><path d="M11.3,10.4c0,2.7-2.2,4.9-4.9,4.9s-4.9-2.2-4.9-4.9s2.2-4.9,4.9-4.9C9.1,5.5,11.3,7.7,11.3,10.4" class="st4"/><polygon points="5.9 10.9 8.1 13.3 6.9 13.3 4 10.4 6.9 7.6 8.1 7.6 5.9 9.9 11.3 9.9 11.3 10.9" class="st3"/><rect width="38" height="20" x="12" y="22.7" class="st5"/><rect width="12" height="20" y="22.7" class="st4"/><g class="st6"><g><g><path d="M2,3.7c-1.1,0-2,0.9-2,2V13v3.3v28c0,1.1,0.9,2,2,2h2.2L43.6,3.7H2z" class="st3"/></g></g></g></svg>