<svg xmlns="http://www.w3.org/2000/svg" xmlns:xlink="http://www.w3.org/1999/xlink" id="Layer_1" x="0" y="0" enable-background="new 0 0 50 50" version="1.1" viewBox="0 0 50 50" xml:space="preserve"><style type="text/css">.fill-color{fill:#464f59}</style><g><path d="M25,26.3c-12.1,0-21.8-3.5-22-7.9h0v4.3c0,4.4,9.9,8,22,8c12.1,0,22-3.6,22-8v-4.3h0 C46.8,22.8,37.1,26.3,25,26.3z" class="fill-color"/><path d="M25,35.1c-12.1,0-21.8-3.5-22-7.9h0v4.3c0,4.4,9.9,8,22,8c12.1,0,22-3.6,22-8v-4.3h0 C46.8,31.6,37.1,35.1,25,35.1z" class="fill-color"/><path d="M25,43.9c-12.1,0-21.8-3.5-22-7.9h0v4.3c0,4.4,9.9,8,22,8c12.1,0,22-3.6,22-8v-4.3h0 C46.8,40.4,37.1,43.9,25,43.9z" class="fill-color"/><path d="M47,13.9c0,4.4-9.9,8-22,8s-22-3.6-22-8V9.7h44V13.9z" class="fill-color"/><path d="M47,9.7c0,4.4-9.9,8-22,8s-22-3.6-22-8s9.8-8,22-8S47,5.3,47,9.7" class="fill-color"/></g></svg>