<svg xmlns="http://www.w3.org/2000/svg" xmlns:xlink="http://www.w3.org/1999/xlink" id="Layer_1" width="32" height="32" x="0" style="enable-background:new 0 0 32 32" y="0" version="1.1" viewBox="0 0 32 32" xml:space="preserve"><style type="text/css">.st0{fill:#9c9c9d}.st1{fill:#7d7e7f}.st2{fill:#fff}.st3{fill:#5badd4}</style><symbol id="New_Symbol_2" viewBox="-178.2 -178.9 356.5 356.5"><g><path d="M116.5-149.6H-117c-17.9,0-32.5,14.6-32.5,32.5v233.4c0,17.9,14.6,32.5,32.5,32.5h233.4 c17.9,0,32.5-14.6,32.5-32.5v-233.4C149-135,134.4-149.6,116.5-149.6z M-117,127.2c-6,0-10.8-4.9-10.8-10.8v-233.4 c0-6,4.9-10.8,10.8-10.8h233.4c6,0,10.8,4.9,10.8,10.8v233.4c0,6-4.9,10.8-10.8,10.8H-117z" class="st0"/><g><path d="M-31.6,174.5c-8,3.7-17,4.1-25.2,1.1c-8.3-3-14.9-9.1-18.6-17.1l-4.8-10.4H24.8L-31.6,174.5z" class="st1"/><path d="M176.2,56.3c-3,8.3-9.1,14.9-17.1,18.6l-10.4,4.8V-25.4L175.1,31C178.9,39,179.3,48,176.2,56.3z" class="st1"/><path d="M-175.1-56.5c-3.7-8-4.1-17-1.1-25.2c3-8.3,9.1-14.9,17.1-18.6l10.4-4.8V-0.1L-175.1-56.5z" class="st1"/><path d="M55.9-175.8c4.4-2.1,9.2-3.1,13.9-3.1c3.8,0,7.6,0.7,11.3,2c8.3,3,14.9,9.1,18.6,17.1h0l4.8,10.4H-0.5 L55.9-175.8z" class="st1"/></g><path d="M-117,127.2c-6,0-10.8-4.9-10.8-10.8v-233.4c0-6,4.9-10.8,10.8-10.8h233.4c6,0,10.8,4.9,10.8,10.8v233.4 c0,6-4.9,10.8-10.8,10.8H-117z" class="st2"/><path d="M51.2,22L51.2,22H5.9L24.8,85c0.5,1.7-0.3,3.5-1.9,4.3c-0.5,0.2-1,0.4-1.6,0.4c-1.2,0-2.3-0.6-3-1.6 L-54.9-18.4c-0.8-1.1-0.8-2.6-0.2-3.7c0.6-1.2,1.9-1.9,3.2-1.9h43.8l-19.5-64.3c-0.5-1.7,0.3-3.5,1.9-4.3c0.5-0.2,1-0.4,1.6-0.4 c1.2,0,2.3,0.6,3,1.5L54.2,16.2c0.4,0.6,0.7,1.4,0.7,2.2C54.9,20.4,53.2,22,51.2,22z M51.2,18.4" class="st3"/></g></symbol><use id="XMLID_394_" width="356.5" height="356.5" x="-178.2" y="-178.9" transform="matrix(8.976208e-002 0 0 -8.976208e-002 16 15.944)" xlink:href="#New_Symbol_2" style="overflow:visible"/></svg>