<svg xmlns="http://www.w3.org/2000/svg" xmlns:svg="http://www.w3.org/2000/svg" id="Layer_1" x="0" y="0" version="1.1" viewBox="0 0 32 32" xml:space="preserve" style="enable-background:new 0 0 32 32"><metadata id="metadata4498"/><polygon id="polygon4485" points="2.8 5.5 2.7 11.5 .3 9.1 .5 .9 8.7 .6 11.1 3.1 5.1 3.2 13 11.1 10.7 13.4" style="fill:#0058ad;fill-opacity:1"/><polygon id="polygon4487" points="5.1 29 11.1 29.1 8.7 31.5 .5 31.3 .2 23.1 2.7 20.7 2.8 26.7 10.7 18.8 13 21.1" style="fill:#0058ad;fill-opacity:1"/><polygon id="polygon4489" points="29.4 26.7 29.5 20.6 31.9 23 31.6 31.2 23.5 31.5 21 29.1 27.1 28.9 19.2 21 21.5 18.7" style="fill:#0058ad;fill-opacity:1"/><polygon id="polygon4491" points="27.1 3.1 21 3 23.4 .6 31.6 .9 32 9 29.5 11.5 29.4 5.4 21.5 13.3 19.2 11.1" style="fill:#0058ad;fill-opacity:1"/><path style="opacity:1;fill:#539cf6;fill-opacity:1;stroke:#0273d4;stroke-width:.23136418;stroke-miterlimit:4;stroke-dasharray:none;stroke-opacity:1" id="path4500"/></svg>