<svg xmlns:svg="http://www.w3.org/2000/svg" xmlns:xlink="http://www.w3.org/1999/xlink" id="FxSymbol0-04c" width="100%" height="100%" class="fxs-portal-svg" focusable="false" role="presentation" viewBox="0 0 50 50"><g><title/><path d="M4 0h10.003v50H4z" class="msportalfx-svg-c02"/><path d="M6 2h5.941v46H6z" class="msportalfx-svg-c15"/><path d="M6 20h6.003v28H6z" class="msportalfx-svg-c01" opacity=".6"/><path d="M4 18h9.999v4H4z" class="msportalfx-svg-c04"/><path d="M4.001 18h10v2h-10z" class="msportalfx-svg-c01" opacity=".7"/><path d="M20 0h10.003v50H20z" class="msportalfx-svg-c02"/><path d="M22 2h5.941v46H22z" class="msportalfx-svg-c15"/><path d="M22.005 36h6.003v12h-6.003z" class="msportalfx-svg-c01" opacity=".6"/><path d="M20 34h9.999v4H20z" class="msportalfx-svg-c04"/><path d="M20.001 34h10v2h-10z" class="msportalfx-svg-c01" opacity=".7"/><path d="M36 0h10.003v50H36z" class="msportalfx-svg-c02"/><path d="M38 2h5.941v46H38z" class="msportalfx-svg-c15"/><path d="M38 20h6.003v28H38z" class="msportalfx-svg-c01" opacity=".6"/><path d="M36 18h9.999v4H36z" class="msportalfx-svg-c04"/><path d="M36.001 18h10v2h-10z" class="msportalfx-svg-c01" opacity=".7"/><path d="M4.001 22h10v2h-10zm31.969 0h10v2h-10zM20.007 38h10v2h-10z" class="msportalfx-svg-c06" opacity=".2"/></g></svg>