<svg xmlns="http://www.w3.org/2000/svg" xmlns:xlink="http://www.w3.org/1999/xlink" id="Layer_1" x="0" y="0" enable-background="new 0 0 28 28" version="1.1" viewBox="0 0 28 28" xml:space="preserve"><g><path fill="#808285" d="M14,14.8c-7.2,0-13.1-2.1-13.2-4.7h0v2.6c0,2.6,5.9,4.8,13.2,4.8c7.3,0,13.2-2.1,13.2-4.8v-2.6h0 C27.1,12.7,21.2,14.8,14,14.8z"/><path fill="#808285" d="M14,20.1c-7.2,0-13.1-2.1-13.2-4.7h0v2.6c0,2.6,5.9,4.8,13.2,4.8c7.3,0,13.2-2.1,13.2-4.8v-2.6h0 C27.1,18,21.2,20.1,14,20.1z"/><path fill="#808285" d="M14,25.4c-7.2,0-13.1-2.1-13.2-4.7h0v2.6C0.8,25.9,6.7,28,14,28c7.3,0,13.2-2.1,13.2-4.8v-2.6h0 C27.1,23.3,21.2,25.4,14,25.4z"/><path fill="#808285" d="M27.2,7.4c0,2.6-5.9,4.8-13.2,4.8S0.8,10,0.8,7.4V4.8h26.4V7.4z"/><path fill="#808285" d="M27.2,4.8c0,2.6-5.9,4.8-13.2,4.8S0.8,7.4,0.8,4.8S6.7,0,14,0S27.2,2.1,27.2,4.8"/></g></svg>