<svg xmlns="http://www.w3.org/2000/svg" xmlns:svg="http://www.w3.org/2000/svg" xmlns:xlink="http://www.w3.org/1999/xlink" id="Layer_1" x="0" y="0" style="enable-background:new 0 0 50 50" focusable="false" version="1.1" viewBox="0 0 50 50" xml:space="preserve"><style type="text/css">.st0{fill:#a0a1a2}.st1,.st2{enable-background:new}.st1{opacity:.15;fill:#fff}.st2{opacity:.1}.st2,.st3{fill:#fff}</style><g><path d="M0,44.5c0,1.1,0.9,2,2,2h46c1.1,0,2-0.9,2-2v-32H0V44.5z"/><path d="M48,3.9H2c-1.1,0-2,0.9-2,2c0,0,0,0,0,0v7.3h50V5.9C50,4.8,49.1,3.9,48,3.9z" class="st0"/><path d="M0,13.2h50v3.3H0V13.2z" class="st1"/><path d="M2,3.9c-1.1,0-2,0.9-2,2c0,0,0,0,0,0v38.6c0,1.1,0.9,2,2,2h19.2L43.6,3.9H2z" class="st2"/><path d="M7.4,37.2V36l9-4.4v-0.1l-9-5v-1.2l11,6.2v0.2L7.4,37.2z M17.6,41.7h11.3v1.6H17.6V41.7z" class="st3"/></g></svg>